<svg width="120" height="17" viewBox="0 0 120 17" fill="none" xmlns="http://www.w3.org/2000/svg">
<g clip-path="url(#clip0)">
<path d="M13.2861 7.48018V15.6768H11.0896C10.911 15.0699 10.7146 14.559 10.5002 14.1446C9.593 15.3161 8.25017 15.9019 6.47156 15.9019C4.58573 15.9019 3.03561 15.2429 1.82137 13.9249C0.607122 12.6069 0 10.823 0 8.57297C0 6.38722 0.587404 4.54962 1.76254 3.06015C2.93752 1.57084 4.68581 0.826187 7.00743 0.826187C8.75025 0.826187 10.1539 1.26927 11.2183 2.15493C12.2826 3.04076 12.9719 4.29792 13.2863 5.92658L8.93617 6.35508C8.72192 4.83363 8.05382 4.0729 6.93253 4.0729C5.46096 4.0729 4.72542 5.47306 4.72542 8.27322C4.72542 9.96617 4.96104 11.0822 5.43262 11.6213C5.90404 12.1609 6.47537 12.4304 7.14695 12.4304C7.68961 12.4304 8.15224 12.2662 8.53451 11.9375C8.91662 11.6091 9.11115 11.159 9.11844 10.5875H6.69674V7.48018H13.2861Z" fill="black"/>
<path d="M23.7186 15.6767L22.8921 12.7943H18.9739L18.0959 15.6767H14.4512L18.9663 1.05121H23.7129L28.3002 15.6767H23.7186ZM19.7371 9.60146H22.1035L20.9202 5.3589L19.7371 9.60146Z" fill="black"/>
<path d="M45.5481 1.05136V15.6768H41.3801V5.2192L38.6746 15.6767H35.8246L33.012 5.2192V15.6767H29.6475V1.05136H35.5137L37.6353 8.81952L39.6603 1.05136H45.5481Z" fill="black"/>
<path d="M59.1022 12.1837V15.6767H48.0981V1.05136H59.1022V4.42633H52.5019V6.54794H57.8378V9.79449H52.5019V12.1839H59.1022V12.1837Z" fill="black"/>
<path d="M61.1675 8.13403L60.999 1.3662L72.9455 1.06877L73.0321 4.54995L66.024 4.72443L66.0534 5.90554L66.0832 7.10222L71.4694 6.96817L61.1675 8.13403ZM66.024 4.72443L66.0534 5.90554L66.0832 7.10222" fill="#ED1C24"/>
<path d="M71.5959 8.20743L71.4521 11.4937L66.0693 11.2581L65.8299 16.728L60.8945 16.5118L61.2382 8.66393L71.5959 8.20743Z" fill="#ED1C24"/>
<path d="M73.2822 8.47088C73.4436 7.39002 73.7641 6.42897 74.2434 5.58788C74.7228 4.74678 75.3616 4.0255 76.1594 3.42401C77.7546 2.22119 79.7818 1.8033 82.2409 2.17032C84.5162 2.50984 86.2711 3.45068 87.5059 4.99285C87.9755 5.57942 88.3319 6.21488 88.5751 6.89939" fill="#ED1C24"/>
<path d="M88.2994 8.92259C88.1847 9.90304 87.9488 10.7852 87.5912 11.5695C87.1075 12.6298 86.4023 13.511 85.4749 14.2127C83.8611 15.4336 81.9078 15.9101 79.6151 15.6422C77.306 15.3723 75.5032 14.4748 74.2066 12.9496C73.4895 12.1062 73.0112 11.1489 72.772 10.0775" fill="#ED1C24"/>
<path d="M103.918 8.65266C104.475 9.34247 104.753 10.1556 104.753 11.0919C104.753 12.5716 104.075 13.7708 102.719 14.6891C101.363 15.6076 99.5833 16.0667 97.3797 16.0667C93.3517 16.0667 90.8657 14.5811 89.9214 11.6094L94.6312 10.8594C95.0266 12.0381 96.0437 12.6273 97.6823 12.6273C98.9576 12.6273 99.5952 12.3272 99.5952 11.7272C99.5952 11.4131 99.4479 11.1683 99.1535 10.9932C98.8587 10.8182 98.332 10.6631 97.5732 10.5276" fill="#ED1C24"/>
<path d="M97.3794 9.5365C94.4811 9.04487 92.6205 8.40279 91.7976 7.60958C90.9743 6.81638 90.563 5.88399 90.563 4.81208C90.563 3.43329 91.154 2.28649 92.3368 1.37183C93.5192 0.457331 95.2203 0 97.4402 0C100.806 0 103.03 1.19652 104.111 3.58938L99.9102 4.71431C99.4745 3.73569 98.5906 3.24638 97.2587 3.24638C96.1527 3.24638 95.5999 3.55028 95.5999 4.15723C95.5999 4.42881 95.725 4.63925 95.9754 4.78938C96.2254 4.93917 96.7099 5.082 97.4286 5.21721C99.4064 5.58739 100.811 5.91481 101.643 6.19948C102.474 6.48432 103.168 6.97131 103.725 7.66128" fill="#ED1C24"/>
<path d="M106.894 8.28397C106.107 7.45481 105.737 6.50502 105.785 5.43427C105.847 4.05682 106.489 2.93752 107.711 2.07671C108.933 1.2159 110.653 0.834956 112.871 0.93421C116.233 1.08467 118.401 2.37944 119.375 4.8182L115.127 5.75424C114.736 4.75723 113.875 4.22881 112.544 4.16933C111.439 4.11978 110.873 4.39849 110.846 5.00495C110.834 5.2762 110.95 5.4921 111.193 5.65333C111.436 5.81439 111.914 5.97843 112.626 6.14579C114.585 6.60395 115.974 6.99384 116.792 7.31529" fill="#ED1C24"/>
<path d="M117.246 7.66957C118.065 7.98904 118.738 8.50503 119.265 9.2177C119.792 9.93004 120.035 10.7544 119.996 11.6898C119.934 13.168 119.206 14.3375 117.813 15.1983C116.419 16.0588 114.621 16.4427 112.42 16.3501C108.396 16.1807 105.974 14.592 105.156 11.5829L109.893 11.0318C110.238 12.226 111.23 12.8575 112.867 12.9265C114.141 12.9802 114.791 12.7075 114.816 12.1078C114.829 11.794 114.692 11.5433 114.405 11.356C114.118 11.1688 113.598 10.9917 112.846 10.8243C109.971 10.2114 108.139 9.49144 107.35 8.66426" fill="#ED1C24"/>
</g>
<defs>
<clipPath id="clip0">
<rect width="120" height="16.728" fill="white"/>
</clipPath>
</defs>
</svg>
