<?xml version="1.0" encoding="utf-8"?>
<!-- Generator: Adobe Illustrator 16.0.0, SVG Export Plug-In . SVG Version: 6.00 Build 0)  -->
<!DOCTYPE svg PUBLIC "-//W3C//DTD SVG 1.1//EN" "http://www.w3.org/Graphics/SVG/1.1/DTD/svg11.dtd">
<svg version="1.1" id="Layer_1" xmlns="http://www.w3.org/2000/svg" xmlns:xlink="http://www.w3.org/1999/xlink" x="0px" y="0px"
	 width="200px" height="109px" viewBox="0 0 200 109" enable-background="new 0 0 200 109" xml:space="preserve">
<g>
	<defs>
		<rect id="SVGID_1_" width="200" height="108.161"/>
	</defs>
	<clipPath id="SVGID_2_">
		<use xlink:href="#SVGID_1_"  overflow="visible"/>
	</clipPath>
	<path clip-path="url(#SVGID_2_)" d="M44.481,22.276v27.442h-7.354c-0.598-2.033-1.255-3.743-1.973-5.13
		c-3.038,3.923-7.533,5.883-13.488,5.883c-6.313,0-11.503-2.207-15.569-6.618C2.033,39.441,0,33.469,0,25.935
		c0-7.317,1.967-13.47,5.901-18.456C9.834,2.493,15.688,0,23.46,0c5.835,0,10.534,1.483,14.098,4.448
		c3.563,2.965,5.871,7.174,6.923,12.627L29.918,18.51c-0.717-5.094-2.954-7.641-6.708-7.641c-4.926,0-7.389,4.688-7.389,14.062
		c0,5.668,0.789,9.405,2.368,11.21c1.579,1.806,3.491,2.708,5.74,2.708c1.817,0,3.366-0.549,4.646-1.65
		c1.279-1.099,1.93-2.606,1.955-4.52H22.42V22.276H44.481z"/>
	<path clip-path="url(#SVGID_2_)" d="M79.409,49.719l-2.767-9.65H63.524l-2.939,9.65H48.382L63.499,0.753H79.39l15.358,48.965
		H79.409z M66.079,29.379h7.922L70.04,15.175L66.079,29.379z"/>
	<path clip-path="url(#SVGID_2_)" d="M152.493,0.753v48.965h-13.955V14.708l-9.058,35.011h-9.541l-9.418-35.011v35.011H99.258V0.753
		h19.641l7.103,26.007l6.78-26.007H152.493z"/>
	<path clip-path="url(#SVGID_2_)" d="M197.871,38.024v11.694h-36.842V0.753h36.842v11.3h-22.098v7.103h17.865v10.869h-17.865v8
		H197.871z"/>
	<g clip-path="url(#SVGID_2_)">
		<path fill="#ED1C24" d="M3.031,79.389L2.467,56.729l39.996-0.995l0.29,11.654l-23.462,0.584l0.098,3.954l0.1,4.007l18.033-0.449
			L3.031,79.389z M19.291,67.973l0.098,3.955l0.1,4.006"/>
		<path fill="#ED1C24" d="M37.945,79.635l-0.481,11.002l-18.021-0.789l-0.802,18.313l-16.522-0.724l1.15-26.275L37.945,79.635z"/>
	</g>
	<g clip-path="url(#SVGID_2_)">
		<path fill="#ED1C24" d="M43.59,83.909c0.54-3.618,1.613-6.836,3.218-9.651c1.604-2.815,3.743-5.231,6.415-7.245
			c5.34-4.026,12.127-5.426,20.36-4.197c7.617,1.137,13.493,4.287,17.626,9.45c1.572,1.964,2.766,4.091,3.58,6.383"/>
		<path fill="#ED1C24" d="M93.868,85.422c-0.384,3.282-1.174,6.236-2.371,8.862c-1.62,3.549-3.98,6.5-7.085,8.85
			c-5.403,4.087-11.942,5.682-19.618,4.785c-7.73-0.903-13.766-3.908-18.107-9.015c-2.401-2.823-4.002-6.028-4.803-9.616"/>
	</g>
	<g clip-path="url(#SVGID_2_)">
		<path fill="#ED1C24" d="M146.16,83.339c1.863,2.309,2.794,5.031,2.794,8.166c0,4.954-2.271,8.969-6.81,12.043
			c-4.541,3.075-10.498,4.613-17.877,4.613c-13.484,0-21.808-4.975-24.969-14.924l15.768-2.51c1.324,3.945,4.729,5.918,10.215,5.918
			c4.27,0,6.404-1.005,6.404-3.014c0-1.052-0.492-1.871-1.479-2.457s-2.75-1.105-5.291-1.559"/>
		<path fill="#ED1C24" d="M124.268,86.298c-9.703-1.646-15.933-3.796-18.687-6.451c-2.757-2.656-4.134-5.777-4.134-9.366
			c0-4.616,1.979-8.456,5.939-11.518c3.957-3.063,9.652-4.593,17.084-4.593c11.27,0,18.715,4.006,22.336,12.018l-14.065,3.766
			c-1.459-3.276-4.418-4.914-8.878-4.914c-3.702,0-5.553,1.018-5.553,3.049c0,0.909,0.418,1.613,1.256,2.116
			c0.838,0.502,2.459,0.979,4.865,1.433c6.623,1.239,11.324,2.336,14.109,3.289s5.107,2.584,6.971,4.894"/>
	</g>
	<g clip-path="url(#SVGID_2_)">
		<path fill="#ED1C24" d="M156.12,81.111c-2.634-2.775-3.871-5.955-3.71-9.541c0.206-4.611,2.355-8.359,6.447-11.24
			c4.091-2.883,9.849-4.158,17.273-3.826c11.258,0.504,18.516,4.84,21.775,13.004l-14.221,3.135
			c-1.31-3.338-4.193-5.107-8.647-5.307c-3.699-0.166-5.595,0.768-5.685,2.797c-0.041,0.908,0.346,1.631,1.16,2.172
			c0.815,0.539,2.414,1.088,4.797,1.648c6.56,1.533,11.209,2.84,13.947,3.916"/>
		<path fill="#ED1C24" d="M190.777,79.055c2.742,1.068,4.996,2.797,6.76,5.184c1.766,2.385,2.581,5.145,2.449,8.275
			c-0.209,4.949-2.646,8.865-7.311,11.746c-4.666,2.881-10.684,4.166-18.055,3.855c-13.473-0.566-21.579-5.885-24.32-15.959
			l15.86-1.846c1.155,3.998,4.476,6.113,9.957,6.344c4.265,0.18,6.44-0.732,6.524-2.74c0.045-1.051-0.412-1.891-1.373-2.518
			s-2.703-1.221-5.221-1.779c-9.626-2.053-15.759-4.463-18.4-7.232"/>
	</g>
</g>
</svg>
