<?xml version="1.0" encoding="utf-8"?>
<!-- Generator: Adobe Illustrator 16.0.0, SVG Export Plug-In . SVG Version: 6.00 Build 0)  -->
<!DOCTYPE svg PUBLIC "-//W3C//DTD SVG 1.0//EN" "http://www.w3.org/TR/2001/REC-SVG-20010904/DTD/svg10.dtd">
<svg version="1.0" id="Layer_5" xmlns="http://www.w3.org/2000/svg" xmlns:xlink="http://www.w3.org/1999/xlink" x="0px" y="0px"
	 width="28.625px" height="24px" viewBox="-7.572 -2.375 28.625 24" enable-background="new -7.572 -2.375 28.625 24"
	 xml:space="preserve">
<g>
	<polygon fill="#999999" points="6.801,-2.375 17.936,2.911 17.936,15.079 7.488,21.625 -3.079,15.198 -3.079,3.368 	"/>
	<g>
		<g>
			<g enable-background="new    ">
				<g>
					<g>
						<defs>
							<polygon id="SVGID_1_" points="5.805,6.543 7.969,5.406 10.349,6.534 8.188,7.668 							"/>
						</defs>
						<clipPath id="SVGID_2_">
							<use xlink:href="#SVGID_1_"  overflow="visible"/>
						</clipPath>
						<g clip-path="url(#SVGID_2_)">
							<g>
								<g>
									<g>
										<path fill="#FFFFFF" d="M9.161,5.973c-0.663-0.312-1.683-0.31-2.278,0.005c-0.59,0.311-0.549,0.817,0.114,1.13
											C7.656,7.416,8.676,7.41,9.267,7.103C9.863,6.788,9.819,6.281,9.161,5.973"/>
									</g>
								</g>
							</g>
						</g>
					</g>
				</g>
			</g>
		</g>
	</g>
	<g>
		<g>
			<g enable-background="new    ">
				<g>
					<g>
						<defs>
							<polygon id="SVGID_3_" points="10.805,3.557 12.96,2.425 15.344,3.55 13.19,4.682 							"/>
						</defs>
						<clipPath id="SVGID_4_">
							<use xlink:href="#SVGID_3_"  overflow="visible"/>
						</clipPath>
						<g clip-path="url(#SVGID_4_)">
							<g>
								<g>
									<g>
										<path fill="#FFFFFF" d="M14.152,2.987c-0.661-0.313-1.673-0.313-2.27,0.005c-0.597,0.313-0.547,0.813,0.114,1.127
											c0.659,0.311,1.673,0.311,2.27-0.002C14.862,3.8,14.813,3.3,14.152,2.987"/>
									</g>
								</g>
							</g>
						</g>
					</g>
				</g>
			</g>
		</g>
	</g>
	<g>
		<g>
			<g enable-background="new    ">
				<g>
					<g>
						<defs>
							<polygon id="SVGID_5_" points="7.416,1.949 9.569,0.819 11.954,1.944 9.796,3.074 							"/>
						</defs>
						<clipPath id="SVGID_6_">
							<use xlink:href="#SVGID_5_"  overflow="visible"/>
						</clipPath>
						<g clip-path="url(#SVGID_6_)">
							<g>
								<g>
									<g>
										<path fill="#FFFFFF" d="M10.762,1.382c-0.661-0.314-1.671-0.313-2.271,0.002C7.897,1.699,7.944,2.199,8.608,2.511
											c0.661,0.313,1.668,0.312,2.269-0.004C11.474,2.194,11.42,1.695,10.762,1.382"/>
									</g>
								</g>
							</g>
						</g>
					</g>
				</g>
			</g>
		</g>
	</g>
	<g>
		<g>
			<g enable-background="new    ">
				<g>
					<g>
						<defs>
							<polygon id="SVGID_7_" points="4.562,0.338 6.726,-0.796 9.108,0.329 6.945,1.463 							"/>
						</defs>
						<clipPath id="SVGID_8_">
							<use xlink:href="#SVGID_7_"  overflow="visible"/>
						</clipPath>
						<g clip-path="url(#SVGID_8_)">
							<g>
								<g>
									<g>
										<path fill="#FFFFFF" d="M7.916-0.235C7.258-0.546,6.238-0.541,5.639-0.224C5.051,0.084,5.094,0.589,5.753,0.901
											c0.663,0.313,1.681,0.309,2.27-0.004C8.62,0.584,8.579,0.079,7.916-0.235"/>
									</g>
								</g>
							</g>
						</g>
					</g>
				</g>
			</g>
		</g>
	</g>
	<g>
		<g>
			<g enable-background="new    ">
				<g>
					<g>
						<defs>
							<polygon id="SVGID_9_" points="2.581,4.935 4.743,3.8 7.133,4.928 4.973,6.063 							"/>
						</defs>
						<clipPath id="SVGID_10_">
							<use xlink:href="#SVGID_9_"  overflow="visible"/>
						</clipPath>
						<g clip-path="url(#SVGID_10_)">
							<g>
								<g>
									<g>
										<path fill="#FFFFFF" d="M5.942,4.368c-0.661-0.315-1.685-0.313-2.274,0C3.069,4.68,3.123,5.189,3.781,5.502
											C4.435,5.81,5.462,5.81,6.06,5.493C6.649,5.183,6.594,4.675,5.942,4.368"/>
									</g>
								</g>
							</g>
						</g>
					</g>
				</g>
			</g>
		</g>
	</g>
	<g>
		<g>
			<g enable-background="new    ">
				<g>
					<g>
						<defs>
							<polygon id="SVGID_11_" points="-1.098,3.325 1.058,2.189 3.44,3.314 1.286,4.447 							"/>
						</defs>
						<clipPath id="SVGID_12_">
							<use xlink:href="#SVGID_11_"  overflow="visible"/>
						</clipPath>
						<g clip-path="url(#SVGID_12_)">
							<g>
								<g>
									<g>
										<path fill="#FFFFFF" d="M2.248,2.751c-0.664-0.312-1.674-0.31-2.27,0.005c-0.596,0.313-0.546,0.815,0.115,1.13
											c0.658,0.313,1.673,0.308,2.269-0.008C2.959,3.567,2.906,3.064,2.248,2.751"/>
									</g>
								</g>
							</g>
						</g>
					</g>
				</g>
			</g>
		</g>
	</g>
	<g>
		<g>
			<g enable-background="new    ">
				<g>
					<g>
						<defs>
							<polygon id="SVGID_13_" points="4.779,11.337 4.815,8.64 6.709,9.29 6.676,11.989 							"/>
						</defs>
						<clipPath id="SVGID_14_">
							<use xlink:href="#SVGID_13_"  overflow="visible"/>
						</clipPath>
						<g clip-path="url(#SVGID_14_)">
							<g>
								<g>
									<g>
										<path fill="#FFFFFF" d="M5.762,8.966C5.238,8.785,4.805,9.242,4.795,9.991c-0.009,0.738,0.406,1.49,0.934,1.67
											c0.523,0.181,0.957-0.278,0.964-1.017C6.699,9.896,6.288,9.146,5.762,8.966"/>
									</g>
								</g>
							</g>
						</g>
					</g>
				</g>
			</g>
		</g>
	</g>
	<g>
		<g>
			<g enable-background="new    ">
				<g>
					<g>
						<defs>
							<polygon id="SVGID_15_" points="-1.579,8.512 -1.546,5.815 0.344,6.464 0.31,9.164 							"/>
						</defs>
						<clipPath id="SVGID_16_">
							<use xlink:href="#SVGID_15_"  overflow="visible"/>
						</clipPath>
						<g clip-path="url(#SVGID_16_)">
							<g>
								<g>
									<g>
										<path fill="#FFFFFF" d="M-0.603,6.137C-1.12,5.959-1.555,6.42-1.564,7.167c-0.01,0.739,0.408,1.488,0.926,1.667
											c0.524,0.183,0.956-0.279,0.968-1.015C0.337,7.069-0.079,6.32-0.603,6.137"/>
									</g>
								</g>
							</g>
						</g>
					</g>
				</g>
			</g>
		</g>
	</g>
	<g>
		<g>
			<g enable-background="new    ">
				<g>
					<g>
						<defs>
							<polygon id="SVGID_17_" points="1.248,13.507 1.28,10.81 3.171,11.459 3.135,14.159 							"/>
						</defs>
						<clipPath id="SVGID_18_">
							<use xlink:href="#SVGID_17_"  overflow="visible"/>
						</clipPath>
						<g clip-path="url(#SVGID_18_)">
							<g>
								<g>
									<g>
										<path fill="#FFFFFF" d="M2.223,11.134c-0.52-0.177-0.951,0.281-0.961,1.031c-0.01,0.734,0.408,1.488,0.926,1.666
											c0.523,0.181,0.959-0.276,0.966-1.018C3.161,12.063,2.747,11.315,2.223,11.134"/>
									</g>
								</g>
							</g>
						</g>
					</g>
				</g>
			</g>
		</g>
	</g>
	<g>
		<g>
			<g enable-background="new    ">
				<g>
					<g>
						<defs>
							<polygon id="SVGID_19_" points="4.779,18.7 4.815,16.002 6.709,16.659 6.676,19.354 							"/>
						</defs>
						<clipPath id="SVGID_20_">
							<use xlink:href="#SVGID_19_"  overflow="visible"/>
						</clipPath>
						<g clip-path="url(#SVGID_20_)">
							<g>
								<g>
									<g>
										<path fill="#FFFFFF" d="M5.762,16.333c-0.524-0.184-0.957,0.273-0.968,1.015c-0.009,0.75,0.406,1.498,0.934,1.679
											c0.523,0.183,0.957-0.274,0.964-1.024C6.699,17.262,6.288,16.512,5.762,16.333"/>
									</g>
								</g>
							</g>
						</g>
					</g>
				</g>
			</g>
		</g>
	</g>
	<g>
		<g>
			<g enable-background="new    ">
				<g>
					<g>
						<defs>
							<polygon id="SVGID_21_" points="-1.581,15.584 -1.546,12.874 0.344,13.526 0.31,16.235 							"/>
						</defs>
						<clipPath id="SVGID_22_">
							<use xlink:href="#SVGID_21_"  overflow="visible"/>
						</clipPath>
						<g clip-path="url(#SVGID_22_)">
							<g>
								<g>
									<g>
										<path fill="#FFFFFF" d="M-0.603,13.2c-0.518-0.178-0.952,0.277-0.961,1.029c-0.01,0.748,0.408,1.496,0.926,1.676
											c0.524,0.182,0.956-0.277,0.968-1.022C0.337,14.127-0.079,13.377-0.603,13.2"/>
									</g>
								</g>
							</g>
						</g>
					</g>
				</g>
			</g>
		</g>
	</g>
	<g>
		<g>
			<g enable-background="new    ">
				<g>
					<g>
						<defs>
							<polygon id="SVGID_23_" points="11.526,13.278 11.531,10.498 13.637,9.952 13.632,12.735 							"/>
						</defs>
						<clipPath id="SVGID_24_">
							<use xlink:href="#SVGID_23_"  overflow="visible"/>
						</clipPath>
						<g clip-path="url(#SVGID_24_)">
							<g>
								<g>
									<g>
										<path fill="#FFFFFF" d="M12.584,10.226c-0.583,0.151-1.055,0.901-1.058,1.672c0,0.762,0.469,1.258,1.053,1.109
											c0.582-0.148,1.053-0.895,1.057-1.652C13.637,10.583,13.165,10.075,12.584,10.226"/>
									</g>
								</g>
							</g>
						</g>
					</g>
				</g>
			</g>
		</g>
	</g>
	<g>
		<g>
			<g enable-background="new    ">
				<g>
					<g>
						<defs>
							<polygon id="SVGID_25_" points="8.63,17.925 8.637,15.141 10.75,14.596 10.745,17.377 							"/>
						</defs>
						<clipPath id="SVGID_26_">
							<use xlink:href="#SVGID_25_"  overflow="visible"/>
						</clipPath>
						<g clip-path="url(#SVGID_26_)">
							<g>
								<g>
									<g>
										<path fill="#FFFFFF" d="M9.685,14.873c-0.577,0.149-1.053,0.897-1.053,1.668c-0.003,0.767,0.469,1.265,1.048,1.112
											c0.591-0.15,1.064-0.896,1.064-1.66C10.748,15.227,10.276,14.716,9.685,14.873"/>
									</g>
								</g>
							</g>
						</g>
					</g>
				</g>
			</g>
		</g>
	</g>
	<g>
		<g>
			<g enable-background="new    ">
				<g>
					<g>
						<defs>
							<polygon id="SVGID_27_" points="14.318,8.776 14.324,5.992 16.43,5.449 16.426,8.233 							"/>
						</defs>
						<clipPath id="SVGID_28_">
							<use xlink:href="#SVGID_27_"  overflow="visible"/>
						</clipPath>
						<g clip-path="url(#SVGID_28_)">
							<g>
								<g>
									<g>
										<path fill="#FFFFFF" d="M15.375,5.72c-0.582,0.152-1.053,0.902-1.057,1.671c0,0.768,0.467,1.266,1.049,1.113
											c0.586-0.148,1.059-0.892,1.062-1.656C16.428,6.08,15.959,5.569,15.375,5.72"/>
									</g>
								</g>
							</g>
						</g>
					</g>
				</g>
			</g>
		</g>
	</g>
</g>
</svg>
