<?xml version="1.0" encoding="utf-8"?>
<!-- Generator: Adobe Illustrator 16.0.0, SVG Export Plug-In . SVG Version: 6.00 Build 0)  -->
<!DOCTYPE svg PUBLIC "-//W3C//DTD SVG 1.0//EN" "http://www.w3.org/TR/2001/REC-SVG-20010904/DTD/svg10.dtd">
<svg version="1.0" id="Layer_5" xmlns="http://www.w3.org/2000/svg" xmlns:xlink="http://www.w3.org/1999/xlink" x="0px" y="0px"
	 width="34.844px" height="46.942px" viewBox="0 0 34.844 46.942" enable-background="new 0 0 34.844 46.942" xml:space="preserve">
<g>
	<g>
		<g>
			<polygon fill="#656569" points="34.15,0 34.15,0.917 0.693,0.917 0.693,0 0,0 0,0.917 0,2.476 0,3.394 0.693,3.394 0.693,2.476 
				34.15,2.476 34.15,3.394 34.844,3.394 34.844,2.476 34.844,0.917 34.844,0 			"/>
			<polygon fill="#FFFFFF" points="29.555,0.691 29.555,2.801 25.697,2.801 25.697,0.691 22.557,0.691 22.557,2.801 18.553,2.801 
				18.553,0.691 15.413,0.691 15.413,2.801 12.24,2.801 12.24,0.691 9.1,0.691 9.1,2.801 4.95,2.801 4.95,0.691 2.24,0.691 
				2.24,2.801 2.24,34.218 17.453,46.303 32.604,34.218 32.604,2.801 32.604,0.691 			"/>
		</g>
		<polyline fill="none" stroke="#000000" stroke-miterlimit="10" points="2.24,0.691 2.24,34.218 17.453,46.303 32.604,34.218 
			32.604,0.691 		"/>
	</g>
	<g>
		<polygon points="16.938,14.761 25.484,18.815 25.484,28.155 17.465,33.178 9.359,28.245 9.359,19.167 		"/>
		<g>
			<g>
				<g enable-background="new    ">
					<defs>
						<polygon id="SVGID_1_" enable-background="new    " points="16.175,21.605 17.835,20.733 19.662,21.596 18.003,22.467 						
							"/>
					</defs>
					<clipPath id="SVGID_2_">
						<use xlink:href="#SVGID_1_"  overflow="visible"/>
					</clipPath>
					<g clip-path="url(#SVGID_2_)">
						<g>
							<g>
								<g>
									<path fill="#FFFFFF" d="M18.749,21.165c-0.507-0.239-1.289-0.235-1.747,0.006c-0.453,0.237-0.42,0.626,0.087,0.865
										c0.507,0.239,1.288,0.235,1.741-0.003C19.288,21.792,19.256,21.404,18.749,21.165"/>
								</g>
							</g>
						</g>
					</g>
				</g>
			</g>
		</g>
		<g>
			<g>
				<g enable-background="new    ">
					<defs>
						<polygon id="SVGID_3_" enable-background="new    " points="20.012,19.313 21.665,18.444 23.494,19.307 21.841,20.176 						
							"/>
					</defs>
					<clipPath id="SVGID_4_">
						<use xlink:href="#SVGID_3_"  overflow="visible"/>
					</clipPath>
					<g clip-path="url(#SVGID_4_)">
						<g>
							<g>
								<g>
									<path fill="#FFFFFF" d="M22.58,18.875c-0.507-0.239-1.283-0.238-1.741,0.003c-0.459,0.241-0.42,0.626,0.087,0.866
										s1.283,0.238,1.741-0.003C23.126,19.5,23.087,19.115,22.58,18.875"/>
								</g>
							</g>
						</g>
					</g>
				</g>
			</g>
		</g>
		<g>
			<g>
				<g enable-background="new    ">
					<defs>
						<polygon id="SVGID_5_" enable-background="new    " points="17.411,18.08 19.064,17.211 20.893,18.074 19.239,18.942 						
							"/>
					</defs>
					<clipPath id="SVGID_6_">
						<use xlink:href="#SVGID_5_"  overflow="visible"/>
					</clipPath>
					<g clip-path="url(#SVGID_6_)">
						<g>
							<g>
								<g>
									<path fill="#FFFFFF" d="M19.979,17.642c-0.507-0.239-1.282-0.238-1.741,0.003c-0.458,0.241-0.419,0.626,0.088,0.865
										s1.282,0.238,1.74-0.003C20.524,18.267,20.485,17.882,19.979,17.642"/>
								</g>
							</g>
						</g>
					</g>
				</g>
			</g>
		</g>
		<g>
			<g>
				<g enable-background="new    ">
					<defs>
						<polygon id="SVGID_7_" enable-background="new    " points="15.221,16.844 16.881,15.972 18.709,16.834 17.05,17.706 						
							"/>
					</defs>
					<clipPath id="SVGID_8_">
						<use xlink:href="#SVGID_7_"  overflow="visible"/>
					</clipPath>
					<g clip-path="url(#SVGID_8_)">
						<g>
							<g>
								<g>
									<path fill="#FFFFFF" d="M17.795,16.403c-0.507-0.239-1.289-0.235-1.747,0.006c-0.452,0.238-0.42,0.626,0.087,0.866
										s1.289,0.235,1.741-0.003C18.335,17.031,18.302,16.642,17.795,16.403"/>
								</g>
							</g>
						</g>
					</g>
				</g>
			</g>
		</g>
		<g>
			<g>
				<g enable-background="new    ">
					<defs>
						<polygon id="SVGID_9_" enable-background="new    " points="13.701,20.37 15.361,19.499 17.195,20.364 15.536,21.236 						
							"/>
					</defs>
					<clipPath id="SVGID_10_">
						<use xlink:href="#SVGID_9_"  overflow="visible"/>
					</clipPath>
					<g clip-path="url(#SVGID_10_)">
						<g>
							<g>
								<g>
									<path fill="#FFFFFF" d="M16.281,19.933c-0.507-0.239-1.295-0.238-1.747,0c-0.459,0.241-0.419,0.633,0.088,0.872
										c0.501,0.236,1.288,0.235,1.747-0.006C16.822,20.561,16.781,20.169,16.281,19.933"/>
								</g>
							</g>
						</g>
					</g>
				</g>
			</g>
		</g>
		<g>
			<g>
				<g enable-background="new    ">
					<defs>
						<polygon id="SVGID_11_" enable-background="new    " points="10.877,19.133 12.531,18.264 14.359,19.126 12.705,19.995 						
							"/>
					</defs>
					<clipPath id="SVGID_12_">
						<use xlink:href="#SVGID_11_"  overflow="visible"/>
					</clipPath>
					<g clip-path="url(#SVGID_12_)">
						<g>
							<g>
								<g>
									<path fill="#FFFFFF" d="M13.445,18.695c-0.508-0.239-1.283-0.238-1.742,0.003c-0.458,0.241-0.419,0.626,0.088,0.866
										s1.283,0.238,1.741-0.003S13.951,18.935,13.445,18.695"/>
								</g>
							</g>
						</g>
					</g>
				</g>
			</g>
		</g>
		<g>
			<g>
				<g enable-background="new    ">
					<defs>
						<polygon id="SVGID_13_" enable-background="new    " points="15.387,25.282 15.414,23.212 16.869,23.713 16.842,25.784 						
							"/>
					</defs>
					<clipPath id="SVGID_14_">
						<use xlink:href="#SVGID_13_"  overflow="visible"/>
					</clipPath>
					<g clip-path="url(#SVGID_14_)">
						<g>
							<g>
								<g>
									<path fill="#FFFFFF" d="M16.142,23.463c-0.403-0.139-0.734,0.213-0.741,0.789c-0.008,0.566,0.311,1.143,0.714,1.281
										s0.734-0.213,0.741-0.781C16.863,24.178,16.545,23.602,16.142,23.463"/>
								</g>
							</g>
						</g>
					</g>
				</g>
			</g>
		</g>
		<g>
			<g>
				<g enable-background="new    ">
					<defs>
						<polygon id="SVGID_15_" enable-background="new    " points="10.507,23.114 10.533,21.044 11.984,21.544 11.957,23.614 						
							"/>
					</defs>
					<clipPath id="SVGID_16_">
						<use xlink:href="#SVGID_15_"  overflow="visible"/>
					</clipPath>
					<g clip-path="url(#SVGID_16_)">
						<g>
							<g>
								<g>
									<path fill="#FFFFFF" d="M11.256,21.293c-0.396-0.137-0.729,0.216-0.736,0.791c-0.007,0.566,0.313,1.142,0.709,1.279
										c0.403,0.14,0.734-0.213,0.742-0.779C11.979,22.008,11.659,21.432,11.256,21.293"/>
								</g>
							</g>
						</g>
					</g>
				</g>
			</g>
		</g>
		<g>
			<g>
				<g enable-background="new    ">
					<defs>
						<polygon id="SVGID_17_" enable-background="new    " points="12.676,26.948 12.703,24.879 14.153,25.377 14.126,27.448 						
							"/>
					</defs>
					<clipPath id="SVGID_18_">
						<use xlink:href="#SVGID_17_"  overflow="visible"/>
					</clipPath>
					<g clip-path="url(#SVGID_18_)">
						<g>
							<g>
								<g>
									<path fill="#FFFFFF" d="M13.425,25.127c-0.397-0.137-0.728,0.215-0.735,0.791c-0.008,0.566,0.312,1.143,0.708,1.279
										c0.403,0.139,0.735-0.213,0.742-0.781C14.146,25.842,13.828,25.266,13.425,25.127"/>
								</g>
							</g>
						</g>
					</g>
				</g>
			</g>
		</g>
		<g>
			<g>
				<g enable-background="new    ">
					<defs>
						<polygon id="SVGID_19_" enable-background="new    " points="15.387,30.934 15.414,28.864 16.869,29.366 16.842,31.436 						
							"/>
					</defs>
					<clipPath id="SVGID_20_">
						<use xlink:href="#SVGID_19_"  overflow="visible"/>
					</clipPath>
					<g clip-path="url(#SVGID_20_)">
						<g>
							<g>
								<g>
									<path fill="#FFFFFF" d="M16.142,29.116c-0.403-0.139-0.734,0.213-0.741,0.779c-0.008,0.576,0.311,1.15,0.714,1.289
										s0.734-0.211,0.741-0.787C16.863,29.831,16.545,29.254,16.142,29.116"/>
								</g>
							</g>
						</g>
					</g>
				</g>
			</g>
		</g>
		<g>
			<g>
				<g enable-background="new    ">
					<defs>
						<polygon id="SVGID_21_" enable-background="new    " points="10.506,28.542 10.533,26.463 11.984,26.963 11.957,29.042 						
							"/>
					</defs>
					<clipPath id="SVGID_22_">
						<use xlink:href="#SVGID_21_"  overflow="visible"/>
					</clipPath>
					<g clip-path="url(#SVGID_22_)">
						<g>
							<g>
								<g>
									<path fill="#FFFFFF" d="M11.256,26.711c-0.396-0.137-0.729,0.215-0.736,0.791c-0.007,0.574,0.313,1.15,0.709,1.287
										c0.403,0.139,0.734-0.213,0.742-0.787C11.979,27.426,11.659,26.85,11.256,26.711"/>
								</g>
							</g>
						</g>
					</g>
				</g>
			</g>
		</g>
		<g>
			<g>
				<g enable-background="new    ">
					<defs>
						<polygon id="SVGID_23_" enable-background="new    " points="20.564,26.774 20.568,24.639 22.185,24.221 22.181,26.356 						
							"/>
					</defs>
					<clipPath id="SVGID_24_">
						<use xlink:href="#SVGID_23_"  overflow="visible"/>
					</clipPath>
					<g clip-path="url(#SVGID_24_)">
						<g>
							<g>
								<g>
									<path fill="#FFFFFF" d="M21.377,24.43c-0.447,0.115-0.81,0.691-0.811,1.281c-0.001,0.586,0.359,0.969,0.807,0.854
										c0.446-0.115,0.808-0.686,0.81-1.271C22.184,24.706,21.823,24.313,21.377,24.43"/>
								</g>
							</g>
						</g>
					</g>
				</g>
			</g>
		</g>
		<g>
			<g>
				<g enable-background="new    ">
					<defs>
						<polygon id="SVGID_25_" enable-background="new    " points="18.343,30.338 18.348,28.204 19.969,27.784 19.965,29.918 						
							"/>
					</defs>
					<clipPath id="SVGID_26_">
						<use xlink:href="#SVGID_25_"  overflow="visible"/>
					</clipPath>
					<g clip-path="url(#SVGID_26_)">
						<g>
							<g>
								<g>
									<path fill="#FFFFFF" d="M19.154,27.995c-0.445,0.115-0.808,0.693-0.809,1.281c-0.002,0.588,0.358,0.969,0.805,0.854
										c0.453-0.117,0.815-0.686,0.816-1.273S19.608,27.877,19.154,27.995"/>
								</g>
							</g>
						</g>
					</g>
				</g>
			</g>
		</g>
		<g>
			<g>
				<g enable-background="new    ">
					<defs>
						<polygon id="SVGID_27_" enable-background="new    " points="22.707,23.318 22.711,21.182 24.327,20.765 24.323,22.9 						
							"/>
					</defs>
					<clipPath id="SVGID_28_">
						<use xlink:href="#SVGID_27_"  overflow="visible"/>
					</clipPath>
					<g clip-path="url(#SVGID_28_)">
						<g>
							<g>
								<g>
									<path fill="#FFFFFF" d="M23.519,20.974c-0.446,0.115-0.809,0.692-0.81,1.281c-0.001,0.588,0.359,0.97,0.806,0.855
										c0.447-0.116,0.809-0.685,0.811-1.272C24.326,21.249,23.966,20.858,23.519,20.974"/>
								</g>
							</g>
						</g>
					</g>
				</g>
			</g>
		</g>
	</g>
</g>
</svg>
