<?xml version="1.0" encoding="utf-8"?>
<!-- Generator: Adobe Illustrator 16.0.0, SVG Export Plug-In . SVG Version: 6.00 Build 0)  -->
<!DOCTYPE svg PUBLIC "-//W3C//DTD SVG 1.1//EN" "http://www.w3.org/Graphics/SVG/1.1/DTD/svg11.dtd">
<svg version="1.1" id="Layer_1" xmlns="http://www.w3.org/2000/svg" xmlns:xlink="http://www.w3.org/1999/xlink" x="0px" y="0px"
	 width="449.846px" height="436.984px" viewBox="0 0 449.846 436.984" enable-background="new 0 0 449.846 436.984"
	 xml:space="preserve">
<g transform="translate(2.42 2.42)">
	<g transform="translate(12.762)">
		<path d="M207.515,91.532h0.016c15.626,0,28.294,12.668,28.294,28.294v183.544c0,15.626-12.668,28.294-28.294,28.294h-0.016
			c-15.626,0-28.294-12.668-28.294-28.294V119.826C179.221,104.2,191.889,91.532,207.515,91.532z"/>
		<path d="M207.515-2.42h0.016c15.626,0,28.294,12.667,28.294,28.294V55.04c0,15.626-12.668,28.294-28.294,28.294h-0.016
			c-15.626,0-28.294-12.668-28.294-28.294V25.874C179.221,10.247,191.889-2.42,207.515-2.42z"/>
		<path d="M207.515,348.809h0.016c15.626,0,28.294,12.668,28.294,28.295v29.165c0,15.627-12.668,28.295-28.294,28.295h-0.016
			c-15.626,0-28.294-12.668-28.294-28.295v-29.165C179.221,361.477,191.889,348.809,207.515,348.809z"/>
	</g>
	<g transform="translate(5.8 5.607)">
		<path d="M116.35,77.727L116.35,77.727c15.652,0,28.34,12.688,28.34,28.34v95.496c0,15.652-12.688,28.34-28.34,28.34l0,0
			c-15.652,0-28.34-12.688-28.34-28.34v-95.496C88.01,90.415,100.698,77.727,116.35,77.727z"/>
		<path d="M116.35,256.21L116.35,256.21c15.652,0,28.34,12.688,28.34,28.34v29.074c0,15.651-12.688,28.34-28.34,28.34l0,0
			c-15.652,0-28.34-12.688-28.34-28.34V284.55C88.01,268.897,100.698,256.21,116.35,256.21z"/>
	</g>
	<g transform="translate(18.562 5.607)">
		<path d="M302.81,189.803L302.81,189.803c15.651,0,28.34,12.688,28.34,28.34v95.497c0,15.651-12.688,28.34-28.34,28.34l0,0
			c-15.652,0-28.341-12.688-28.341-28.34v-95.497C274.469,202.491,287.158,189.803,302.81,189.803z"/>
		<path d="M302.81,77.727L302.81,77.727c15.651,0,28.34,12.688,28.34,28.34v29.074c0,15.651-12.688,28.34-28.34,28.34l0,0
			c-15.652,0-28.341-12.688-28.341-28.34v-29.074C274.469,90.415,287.158,77.727,302.81,77.727z"/>
	</g>
	<path d="M25.92,171.887L25.92,171.887c15.652,0,28.34,12.688,28.34,28.34v29.074c0,15.652-12.688,28.34-28.34,28.34l0,0
		c-15.652,0-28.34-12.688-28.34-28.34v-29.074C-2.42,184.575,10.268,171.887,25.92,171.887z"/>
	<path d="M419.086,171.887L419.086,171.887c15.651,0,28.34,12.688,28.34,28.34v29.074c0,15.652-12.688,28.34-28.34,28.34l0,0
		c-15.652,0-28.34-12.688-28.34-28.34v-29.074C390.746,184.575,403.434,171.887,419.086,171.887z"/>
</g>
</svg>
